<svg xmlns="http://www.w3.org/2000/svg" xmlns:xlink="http://www.w3.org/1999/xlink" contentStyleType="text/css" data-diagram-type="DESCRIPTION" height="673px" preserveAspectRatio="none" style="width:822px;height:673px;background:#FFFFFF;" version="1.1" viewBox="0 0 822 673" width="822px" zoomAndPan="magnify"><defs/><g><!--cluster Ionos (UK)--><g class="cluster" data-qualified-name="Ionos .UK." data-source-line="1" id="ent0002"><rect fill="none" height="248.04" rx="2.5" ry="2.5" style="stroke:#181818;stroke-width:1;" width="665" x="151" y="160.74"/><path d="M243.6328,160.74 L243.6328,170.0369 L233.6328,180.0369 L151,180.0369" fill="none" style="stroke:#181818;stroke-width:1;"/><text fill="#000000" font-family="sans-serif" font-size="14" font-weight="bold" lengthAdjust="spacing" textLength="82.6328" x="154" y="174.7351">Ionos (UK)</text></g><!--cluster V1--><g class="cluster" data-qualified-name="V1" data-source-line="7" id="ent0007"><rect fill="none" height="103.59" rx="2.5" ry="2.5" style="stroke:#181818;stroke-width:1;" width="144" x="416" y="441.78"/><path d="M513.8418,441.78 L513.8418,451.0769 L503.8418,461.0769 L416,461.0769" fill="none" style="stroke:#181818;stroke-width:1;"/><text fill="#000000" font-family="sans-serif" font-size="14" font-weight="bold" lengthAdjust="spacing" textLength="87.8418" x="419" y="455.7751">Vercel (FR)</text></g><!--cluster V2--><g class="cluster" data-qualified-name="V2" data-source-line="10" id="ent0009"><rect fill="none" height="119.89" rx="2.5" ry="2.5" style="stroke:#181818;stroke-width:1;" width="120" x="7" y="152.59"/><path d="M104.8418,152.59 L104.8418,161.8869 L94.8418,171.8869 L7,171.8869" fill="none" style="stroke:#181818;stroke-width:1;"/><text fill="#000000" font-family="sans-serif" font-size="14" font-weight="bold" lengthAdjust="spacing" textLength="87.8418" x="10" y="166.5851">Vercel (FR)</text></g><!--cluster MongoDB Atlas (FR)--><g class="cluster" data-qualified-name="MongoDB Atlas .FR." data-source-line="13" id="ent0011"><rect fill="none" height="112.59" rx="2.5" ry="2.5" style="stroke:#181818;stroke-width:1;" width="174" x="279" y="7"/><path d="M447.4434,7 L447.4434,16.2969 L437.4434,26.2969 L279,26.2969" fill="none" style="stroke:#181818;stroke-width:1;"/><text fill="#000000" font-family="sans-serif" font-size="14" font-weight="bold" lengthAdjust="spacing" textLength="158.4434" x="282" y="20.9951">MongoDB Atlas (FR)</text></g><!--cluster KuCoin--><g class="cluster" data-qualified-name="KuCoin" data-source-line="17" id="ent0013"><rect fill="none" height="87.3" rx="2.5" ry="2.5" style="stroke:#181818;stroke-width:1;" width="114" x="12" y="321.48"/><path d="M77.4736,321.48 L77.4736,330.7769 L67.4736,340.7769 L12,340.7769" fill="none" style="stroke:#181818;stroke-width:1;"/><text fill="#000000" font-family="sans-serif" font-size="14" font-weight="bold" lengthAdjust="spacing" textLength="55.4736" x="15" y="335.4751">KuCoin</text></g><!--cluster Binance--><g class="cluster" data-qualified-name="Binance" data-source-line="20" id="ent0015"><rect fill="none" height="87.29" rx="2.5" ry="2.5" style="stroke:#181818;stroke-width:1;" width="114" x="477" y="19.65"/><path d="M549.6445,19.65 L549.6445,28.9469 L539.6445,38.9469 L477,38.9469" fill="none" style="stroke:#181818;stroke-width:1;"/><text fill="#000000" font-family="sans-serif" font-size="14" font-weight="bold" lengthAdjust="spacing" textLength="62.6445" x="480" y="33.6451">Binance</text></g><!--cluster MEXC--><g class="cluster" data-qualified-name="MEXC" data-source-line="23" id="ent0017"><rect fill="none" height="87.29" rx="2.5" ry="2.5" style="stroke:#181818;stroke-width:1;" width="114" x="653" y="19.65"/><path d="M707.5635,19.65 L707.5635,28.9469 L697.5635,38.9469 L653,38.9469" fill="none" style="stroke:#181818;stroke-width:1;"/><text fill="#000000" font-family="sans-serif" font-size="14" font-weight="bold" lengthAdjust="spacing" textLength="44.5635" x="656" y="33.6451">MEXC</text></g><!--entity nginx--><g class="entity" data-qualified-name="Ionos .UK..nginx" data-source-line="2" id="ent0003"><rect fill="#F1F1F1" height="36.2969" rx="2.5" ry="2.5" style="stroke:#181818;stroke-width:0.5;" width="109.1748" x="433.41" y="356.48"/><text fill="#000000" font-family="sans-serif" font-size="14" lengthAdjust="spacing" textLength="89.1748" x="443.41" y="379.4751">Nginx server</text></g><!--entity kucoinApi--><g class="entity" data-qualified-name="Ionos .UK..kucoinApi" data-source-line="3" id="ent0004"><rect fill="#F1F1F1" height="52.5938" rx="2.5" ry="2.5" style="stroke:#181818;stroke-width:0.5;" width="188.0273" x="166.99" y="195.74"/><text fill="#000000" font-family="sans-serif" font-size="14" lengthAdjust="spacing" textLength="168.0273" x="176.99" y="218.7351">Bot REST API for KuCoin</text><text fill="#000000" font-family="sans-serif" font-size="14" lengthAdjust="spacing" textLength="60.4775" x="176.99" y="235.032">(NodeJS)</text></g><!--entity binanceApi--><g class="entity" data-qualified-name="Ionos .UK..binanceApi" data-source-line="4" id="ent0005"><rect fill="#F1F1F1" height="52.5938" rx="2.5" ry="2.5" style="stroke:#181818;stroke-width:0.5;" width="195" x="390.5" y="195.74"/><text fill="#000000" font-family="sans-serif" font-size="14" lengthAdjust="spacing" textLength="175" x="400.5" y="218.7351">Bot REST API for Binance</text><text fill="#000000" font-family="sans-serif" font-size="14" lengthAdjust="spacing" textLength="60.4775" x="400.5" y="235.032">(NodeJS)</text></g><!--entity mexcApi--><g class="entity" data-qualified-name="Ionos .UK..mexcApi" data-source-line="5" id="ent0006"><rect fill="#F1F1F1" height="52.5938" rx="2.5" ry="2.5" style="stroke:#181818;stroke-width:0.5;" width="179.1611" x="620.42" y="195.74"/><text fill="#000000" font-family="sans-serif" font-size="14" lengthAdjust="spacing" textLength="159.1611" x="630.42" y="218.7351">Bot REST API for MEXC</text><text fill="#000000" font-family="sans-serif" font-size="14" lengthAdjust="spacing" textLength="60.4775" x="630.42" y="235.032">(NodeJS)</text></g><!--entity app--><g class="entity" data-qualified-name="V1.app" data-source-line="8" id="ent0008"><rect fill="#F1F1F1" height="52.5938" rx="2.5" ry="2.5" style="stroke:#181818;stroke-width:0.5;" width="111.2188" x="432.39" y="476.78"/><text fill="#000000" font-family="sans-serif" font-size="14" lengthAdjust="spacing" textLength="91.2188" x="442.39" y="499.7751">Bot Frontend</text><text fill="#000000" font-family="sans-serif" font-size="14" lengthAdjust="spacing" textLength="51.0029" x="442.39" y="516.072">(VueJS)</text></g><!--entity proxy--><g class="entity" data-qualified-name="V2.proxy" data-source-line="11" id="ent0010"><rect fill="#F1F1F1" height="68.8906" rx="2.5" ry="2.5" style="stroke:#181818;stroke-width:0.5;" width="87.4434" x="23.28" y="187.59"/><text fill="#000000" font-family="sans-serif" font-size="14" lengthAdjust="spacing" textLength="67.4434" x="33.28" y="210.5851">Bot Proxy</text><text fill="#000000" font-family="sans-serif" font-size="14" lengthAdjust="spacing" textLength="44.3174" x="33.28" y="226.882">server</text><text fill="#000000" font-family="sans-serif" font-size="14" lengthAdjust="spacing" textLength="60.4775" x="33.28" y="243.1789">(NodeJS)</text></g><!--entity db--><g class="entity" data-qualified-name="MongoDB Atlas .FR..db" data-source-line="14" id="ent0012"><path d="M352.55,52 C352.55,42 395.0036,42 395.0036,42 C395.0036,42 437.4572,42 437.4572,52 L437.4572,93.5938 C437.4572,103.5938 395.0036,103.5938 395.0036,103.5938 C395.0036,103.5938 352.55,103.5938 352.55,93.5938 L352.55,52" fill="#F1F1F1" style="stroke:#181818;stroke-width:0.5;"/><path d="M352.55,52 C352.55,62 395.0036,62 395.0036,62 C395.0036,62 437.4572,62 437.4572,52" fill="none" style="stroke:#181818;stroke-width:0.5;"/><text fill="#000000" font-family="sans-serif" font-size="14" lengthAdjust="spacing" textLength="23.6592" x="362.55" y="78.9951">Bot</text><text fill="#000000" font-family="sans-serif" font-size="14" lengthAdjust="spacing" textLength="64.9072" x="362.55" y="95.292">database</text></g><!--entity kucoin--><g class="entity" data-qualified-name="KuCoin.kucoin" data-source-line="18" id="ent0014"><rect fill="#F1F1F1" height="36.2969" rx="2.5" ry="2.5" style="stroke:#181818;stroke-width:0.5;" width="82.6104" x="27.69" y="356.48"/><text fill="#000000" font-family="sans-serif" font-size="14" lengthAdjust="spacing" textLength="62.6104" x="37.69" y="379.4751">REST API</text></g><!--entity binance--><g class="entity" data-qualified-name="Binance.binance" data-source-line="21" id="ent0016"><rect fill="#F1F1F1" height="36.2969" rx="2.5" ry="2.5" style="stroke:#181818;stroke-width:0.5;" width="82.6104" x="492.69" y="54.65"/><text fill="#000000" font-family="sans-serif" font-size="14" lengthAdjust="spacing" textLength="62.6104" x="502.69" y="77.6451">REST API</text></g><!--entity mexc--><g class="entity" data-qualified-name="MEXC.mexc" data-source-line="24" id="ent0018"><rect fill="#F1F1F1" height="36.2969" rx="2.5" ry="2.5" style="stroke:#181818;stroke-width:0.5;" width="82.6104" x="668.69" y="54.65"/><text fill="#000000" font-family="sans-serif" font-size="14" lengthAdjust="spacing" textLength="62.6104" x="678.69" y="77.6451">REST API</text></g><!--entity User--><g class="entity" data-qualified-name="User" data-source-line="27" id="ent0019"><ellipse cx="487.9951" cy="600.87" fill="#F1F1F1" rx="8" ry="8" style="stroke:#181818;stroke-width:0.5;"/><path d="M487.9951,608.87 L487.9951,635.87 M474.9951,616.87 L500.9951,616.87 M487.9951,635.87 L474.9951,650.87 M487.9951,635.87 L500.9951,650.87" fill="none" style="stroke:#181818;stroke-width:0.5;"/><text fill="#000000" font-family="sans-serif" font-size="14" lengthAdjust="spacing" textLength="31.9102" x="472.04" y="665.3651">User</text></g><!--link app to User--><g class="link" data-entity-1="ent0008" data-entity-2="ent0019" data-link-type="dependency" data-source-line="28" id="lnk21"><path d="M488,535.76 C488,553.68 488,565.89 488,585.97" fill="none" id="app-User" style="stroke:#181818;stroke-width:1;"/><polygon fill="#181818" points="488,529.76,484,538.76,488,534.76,492,538.76,488,529.76" style="stroke:#181818;stroke-width:1;"/><polygon fill="#181818" points="488,591.97,492,582.97,488,586.97,484,582.97,488,591.97" style="stroke:#181818;stroke-width:1;"/></g><!--link db to binanceApi--><g class="link" data-entity-1="ent0012" data-entity-2="ent0005" data-link-type="dependency" data-source-line="29" id="lnk23"><path d="M417.245,109.0223 C434.255,135.9423 452.4869,164.8065 468.5669,190.2765" fill="none" id="db-binanceApi" style="stroke:#181818;stroke-width:1;"/><polygon fill="#181818" points="414.04,103.95,415.466,113.6951,416.7109,108.1769,422.229,109.4217,414.04,103.95" style="stroke:#181818;stroke-width:1;"/><polygon fill="#181818" points="471.77,195.35,470.3477,185.6044,469.1008,191.1221,463.5831,189.8751,471.77,195.35" style="stroke:#181818;stroke-width:1;"/></g><!--link db to kucoinApi--><g class="link" data-entity-1="ent0012" data-entity-2="ent0004" data-link-type="dependency" data-source-line="30" id="lnk25"><path d="M363.5215,108.3874 C339.0215,135.3074 311.5985,165.4426 288.4185,190.9126" fill="none" id="db-kucoinApi" style="stroke:#181818;stroke-width:1;"/><polygon fill="#181818" points="367.56,103.95,358.544,107.9138,364.1946,107.6478,364.4605,113.2984,367.56,103.95" style="stroke:#181818;stroke-width:1;"/><polygon fill="#181818" points="284.38,195.35,293.396,191.3862,287.7454,191.6521,287.4794,186.0015,284.38,195.35" style="stroke:#181818;stroke-width:1;"/></g><!--link db to mexcApi--><g class="link" data-entity-1="ent0012" data-entity-2="ent0006" data-link-type="dependency" data-source-line="31" id="lnk27"><path d="M438.068,107.2491 C451.288,116.2591 461.69,121.87 477,127.59 C529.94,147.36 550.47,123.78 603,144.59 C632.72,156.37 657.3579,174.2347 677.7279,191.5447" fill="none" id="db-mexcApi" style="stroke:#181818;stroke-width:1;"/><polygon fill="#181818" points="433.11,103.87,438.2943,112.244,437.2417,106.6859,442.7997,105.6333,433.11,103.87" style="stroke:#181818;stroke-width:1;"/><polygon fill="#181818" points="682.3,195.43,678.032,186.554,678.4899,192.1922,672.8516,192.6501,682.3,195.43" style="stroke:#181818;stroke-width:1;"/></g><!--link kucoinApi to proxy--><g class="link" data-entity-1="ent0004" data-entity-2="ent0010" data-link-type="dependency" data-source-line="32" id="lnk28"><path d="M160.63,222.04 C142.07,222.04 135.51,222.04 116.95,222.04" fill="none" id="kucoinApi-proxy" style="stroke:#181818;stroke-width:1;"/><polygon fill="#181818" points="166.63,222.04,157.63,218.04,161.63,222.04,157.63,226.04,166.63,222.04" style="stroke:#181818;stroke-width:1;"/><polygon fill="#181818" points="110.95,222.04,119.95,226.04,115.95,222.04,119.95,218.04,110.95,222.04" style="stroke:#181818;stroke-width:1;"/></g><!--link proxy to kucoin--><g class="link" data-entity-1="ent0010" data-entity-2="ent0014" data-link-type="dependency" data-source-line="33" id="lnk29"><path d="M67.5297,262.8295 C67.9397,293.7095 68.3707,326.1105 68.6907,350.3105" fill="none" id="proxy-kucoin" style="stroke:#181818;stroke-width:1;"/><polygon fill="#181818" points="67.45,256.83,63.5698,265.8823,67.5164,261.8296,71.5691,265.7761,67.45,256.83" style="stroke:#181818;stroke-width:1;"/><polygon fill="#181818" points="68.77,356.31,72.6507,347.2579,68.7039,351.3104,64.6514,347.3637,68.77,356.31" style="stroke:#181818;stroke-width:1;"/></g><!--link kucoin to kucoinApi--><g class="link" data-entity-1="ent0014" data-entity-2="ent0004" data-link-type="dependency" data-source-line="34" id="lnk31"><path d="M96.2213,352.2774 C130.0513,325.7474 184.7694,282.8335 223.7094,252.2835" fill="none" id="kucoin-kucoinApi" style="stroke:#181818;stroke-width:1;"/><polygon fill="#181818" points="91.5,355.98,101.0504,353.5737,95.4345,352.8945,96.1137,347.2786,91.5,355.98" style="stroke:#181818;stroke-width:1;"/><polygon fill="#181818" points="228.43,248.58,218.8801,250.9882,224.4962,251.6663,223.8181,257.2823,228.43,248.58" style="stroke:#181818;stroke-width:1;"/></g><!--link binance to binanceApi--><g class="link" data-entity-1="ent0016" data-entity-2="ent0005" data-link-type="dependency" data-source-line="35" id="lnk33"><path d="M526.7507,96.987 C518.6807,122.817 507.1105,159.8834 497.7805,189.7234" fill="none" id="binance-binanceApi" style="stroke:#181818;stroke-width:1;"/><polygon fill="#181818" points="528.54,91.26,522.0381,98.6576,527.0489,96.0325,529.6741,101.0433,528.54,91.26" style="stroke:#181818;stroke-width:1;"/><polygon fill="#181818" points="495.99,195.45,502.4935,188.0538,497.4821,190.6778,494.858,185.6664,495.99,195.45" style="stroke:#181818;stroke-width:1;"/></g><!--link mexc to mexcApi--><g class="link" data-entity-1="ent0018" data-entity-2="ent0006" data-link-type="dependency" data-source-line="36" id="lnk35"><path d="M710,97.26 C710,123.09 710,159.61 710,189.45" fill="none" id="mexc-mexcApi" style="stroke:#181818;stroke-width:1;"/><polygon fill="#181818" points="710,91.26,706,100.26,710,96.26,714,100.26,710,91.26" style="stroke:#181818;stroke-width:1;"/><polygon fill="#181818" points="710,195.45,714,186.45,710,190.45,706,186.45,710,195.45" style="stroke:#181818;stroke-width:1;"/></g><!--link nginx to app--><g class="link" data-entity-1="ent0003" data-entity-2="ent0008" data-link-type="dependency" data-source-line="37" id="lnk37"><path d="M488,399.21 C488,420.79 488,445.56 488,470.33" fill="none" id="nginx-app" style="stroke:#181818;stroke-width:1;"/><polygon fill="#181818" points="488,393.21,484,402.21,488,398.21,492,402.21,488,393.21" style="stroke:#181818;stroke-width:1;"/><polygon fill="#181818" points="488,476.33,492,467.33,488,471.33,484,467.33,488,476.33" style="stroke:#181818;stroke-width:1;"/></g><!--link kucoinApi to nginx--><g class="link" data-entity-1="ent0004" data-entity-2="ent0003" data-link-type="dependency" data-source-line="38" id="lnk39"><path d="M304.76,252.0667 C350.86,282.6467 416.5504,326.2328 456.4604,352.7128" fill="none" id="kucoinApi-nginx" style="stroke:#181818;stroke-width:1;"/><polygon fill="#181818" points="299.76,248.75,305.0488,257.0583,303.9266,251.5139,309.4711,250.3917,299.76,248.75" style="stroke:#181818;stroke-width:1;"/><polygon fill="#181818" points="461.46,356.03,456.1721,347.7211,457.2937,353.2657,451.7491,354.3873,461.46,356.03" style="stroke:#181818;stroke-width:1;"/><text fill="#000000" font-family="sans-serif" font-size="13" lengthAdjust="spacing" textLength="63.4512" x="382" y="301.5469">Port 3000</text></g><!--link binanceApi to nginx--><g class="link" data-entity-1="ent0005" data-entity-2="ent0003" data-link-type="dependency" data-source-line="39" id="lnk41"><path d="M488,254.58 C488,285.13 488,323.45 488,349.98" fill="none" id="binanceApi-nginx" style="stroke:#181818;stroke-width:1;"/><polygon fill="#181818" points="488,248.58,484,257.58,488,253.58,492,257.58,488,248.58" style="stroke:#181818;stroke-width:1;"/><polygon fill="#181818" points="488,355.98,492,346.98,488,350.98,484,346.98,488,355.98" style="stroke:#181818;stroke-width:1;"/><text fill="#000000" font-family="sans-serif" font-size="13" lengthAdjust="spacing" textLength="63.4512" x="489" y="301.5469">Port 3002</text></g><!--link mexcApi to nginx--><g class="link" data-entity-1="ent0006" data-entity-2="ent0003" data-link-type="dependency" data-source-line="40" id="lnk43"><path d="M667.1246,252.1183 C622.0446,282.6983 557.9451,326.1814 518.9151,352.6614" fill="none" id="mexcApi-nginx" style="stroke:#181818;stroke-width:1;"/><polygon fill="#181818" points="672.09,248.75,662.3964,250.4921,667.9522,251.5569,666.8875,257.1126,672.09,248.75" style="stroke:#181818;stroke-width:1;"/><polygon fill="#181818" points="513.95,356.03,523.6434,354.2872,518.0876,353.2228,519.152,347.667,513.95,356.03" style="stroke:#181818;stroke-width:1;"/><text fill="#000000" font-family="sans-serif" font-size="13" lengthAdjust="spacing" textLength="63.4512" x="613" y="301.5469">Port 3004</text></g><!--SRC=[XLBBRi8m4Bpp5IjEuO14QKzLLObGa2W2HL0GXrnCugHHmpfod8ggwh_NZksyQE5YoUEPsTrPHvoSAFGN35aEpcuvwCDt3u3JG12CK_cqZXCyGqxv9-Lz83cW0jeSbmdOpBPlCF4M434EosBA4lJHMREGlcu7fV2Z22GuoP8ROZT1WW7jg8yQlIrVpGxJZlP4pu4I_lGYFU-Uye2cuCmtch2_wuwjREUSeQ0OIhTzKPcHBBjYDFxBoEFi_EMZ3h7JMwRUQiCLmvYzk30HgNpKlien988SIQuDVRJNqY8yIhqnqCbtcx01DVPGbJHnNvMOy2kDolYgG2MkcYA1a2lPoSbxwe2dOP4DdyiCwuLQLCvH_P46PhRt3uidyRkGiCwnF2Kg0JFcXQF1BylR8Jlrob5am_Qk_tzvjYsLvX4ynWNSZqQZDgLHhkQCsnnRk2Oy_080]--></g></svg>