<?plantuml 1.2026.2beta3?><svg xmlns="http://www.w3.org/2000/svg" xmlns:xlink="http://www.w3.org/1999/xlink" contentStyleType="text/css" data-diagram-type="CLASS" height="1333px" preserveAspectRatio="none" style="width:1484px;height:1333px;background:#FFFFFF;" version="1.1" viewBox="0 0 1484 1333" width="1484px" zoomAndPan="magnify"><defs/><g><!--class Bot--><g class="entity" data-qualified-name="Bot" data-source-line="9" id="ent0002"><rect fill="#FFFFE0" height="365.9375" rx="2.5" ry="2.5" style="stroke:#000000;stroke-width:0.5;" width="261.4707" x="811.68" y="746.2"/><ellipse cx="926.3358" cy="762.2" fill="#ADD1B2" rx="11" ry="11" style="stroke:#181818;stroke-width:1;"/><path d="M929.3045,767.8406 Q928.7264,768.1375 928.0858,768.2781 Q927.4451,768.4344 926.742,768.4344 Q924.242,768.4344 922.9139,766.7938 Q921.6014,765.1375 921.6014,762.0125 Q921.6014,758.8875 922.9139,757.2313 Q924.242,755.575 926.742,755.575 Q927.4451,755.575 928.0858,755.7313 Q928.742,755.8875 929.3045,756.1844 L929.3045,758.9031 Q928.6795,758.325 928.0858,758.0594 Q927.492,757.7781 926.867,757.7781 Q925.5233,757.7781 924.8358,758.8563 Q924.1483,759.9188 924.1483,762.0125 Q924.1483,764.1063 924.8358,765.1844 Q925.5233,766.2469 926.867,766.2469 Q927.492,766.2469 928.0858,765.9813 Q928.6795,765.7 929.3045,765.1219 L929.3045,767.8406 Z " fill="#000000"/><text fill="#000000" font-family="sans-serif" font-size="14" lengthAdjust="spacing" textLength="23.6592" x="946.8358" y="767.0467">Bot</text><line style="stroke:#000000;stroke-width:0.5;" x1="812.68" x2="1072.1507" y1="778.2" y2="778.2"/><text fill="#000000" font-family="sans-serif" font-size="14" lengthAdjust="spacing" textLength="87.5547" x="817.68" y="795.1951">_id: ObjectId</text><text fill="#000000" font-family="sans-serif" font-size="14" lengthAdjust="spacing" textLength="119.6494" x="817.68" y="811.492">createdAt: String</text><text fill="#000000" font-family="sans-serif" font-size="14" lengthAdjust="spacing" textLength="111.3301" x="817.68" y="827.7889">userId: ObjectId</text><text fill="#000000" font-family="sans-serif" font-size="14" lengthAdjust="spacing" textLength="93.7891" x="817.68" y="844.0857">config: String</text><text fill="#000000" font-family="sans-serif" font-size="14" lengthAdjust="spacing" textLength="144.5049" x="817.68" y="860.3826">stopBuying: Boolean</text><text fill="#000000" font-family="sans-serif" font-size="14" lengthAdjust="spacing" textLength="156.3926" x="817.68" y="876.6795">openingPrice: Number</text><text fill="#000000" font-family="sans-serif" font-size="14" lengthAdjust="spacing" textLength="150.8623" x="817.68" y="892.9764">currentPrice: Number</text><text fill="#000000" font-family="sans-serif" font-size="14" lengthAdjust="spacing" textLength="142.3037" x="817.68" y="909.2732">hasStarted: Boolean</text><text fill="#000000" font-family="sans-serif" font-size="14" lengthAdjust="spacing" textLength="127.7295" x="817.68" y="925.5701">isPaused: Boolean</text><text fill="#000000" font-family="sans-serif" font-size="14" lengthAdjust="spacing" textLength="108.8828" x="817.68" y="941.867">cycles: Number</text><text fill="#000000" font-family="sans-serif" font-size="14" lengthAdjust="spacing" textLength="155.6201" x="817.68" y="958.1639">freePositions: Number</text><text fill="#000000" font-family="sans-serif" font-size="14" lengthAdjust="spacing" textLength="178.6299" x="817.68" y="974.4607">lastHighestPrice: Number</text><text fill="#000000" font-family="sans-serif" font-size="14" lengthAdjust="spacing" textLength="155.2852" x="817.68" y="990.7576">lastSoldPrice: Number</text><text fill="#000000" font-family="sans-serif" font-size="14" lengthAdjust="spacing" textLength="134.4902" x="817.68" y="1007.0545">totalProfit: Number</text><text fill="#000000" font-family="sans-serif" font-size="14" lengthAdjust="spacing" textLength="181.248" x="817.68" y="1023.3514">totalProfitCrypto: Number</text><text fill="#000000" font-family="sans-serif" font-size="14" lengthAdjust="spacing" textLength="186.8604" x="817.68" y="1039.6482">totalTransactions: Number</text><text fill="#000000" font-family="sans-serif" font-size="14" lengthAdjust="spacing" textLength="160.3779" x="817.68" y="1055.9451">positionBoost: Number</text><text fill="#000000" font-family="sans-serif" font-size="14" lengthAdjust="spacing" textLength="135.4678" x="817.68" y="1072.242">usdtBoost: Number</text><text fill="#000000" font-family="sans-serif" font-size="14" lengthAdjust="spacing" textLength="224.5537" x="817.68" y="1088.5389">currentThresholdIndex: Number</text><text fill="#000000" font-family="sans-serif" font-size="14" lengthAdjust="spacing" textLength="249.4707" x="817.68" y="1104.8357">activeEmergencyPositions: Number</text></g><!--class CryptoProfit--><g class="entity" data-qualified-name="CryptoProfit" data-source-line="32" id="ent0003"><rect fill="#FFFFE0" height="154.0781" rx="2.5" ry="2.5" style="stroke:#000000;stroke-width:0.5;" width="150.8379" x="7" y="852.13"/><ellipse cx="37.754" cy="868.13" fill="#ADD1B2" rx="11" ry="11" style="stroke:#181818;stroke-width:1;"/><path d="M40.7227,873.7706 Q40.1446,874.0675 39.504,874.2081 Q38.8633,874.3644 38.1602,874.3644 Q35.6602,874.3644 34.3321,872.7238 Q33.0196,871.0675 33.0196,867.9425 Q33.0196,864.8175 34.3321,863.1613 Q35.6602,861.505 38.1602,861.505 Q38.8633,861.505 39.504,861.6613 Q40.1602,861.8175 40.7227,862.1144 L40.7227,864.8331 Q40.0977,864.255 39.504,863.9894 Q38.9102,863.7081 38.2852,863.7081 Q36.9415,863.7081 36.254,864.7863 Q35.5665,865.8488 35.5665,867.9425 Q35.5665,870.0363 36.254,871.1144 Q36.9415,872.1769 38.2852,872.1769 Q38.9102,872.1769 39.504,871.9113 Q40.0977,871.63 40.7227,871.0519 L40.7227,873.7706 Z " fill="#000000"/><text fill="#000000" font-family="sans-serif" font-size="14" lengthAdjust="spacing" textLength="83.8291" x="55.2548" y="872.9767">CryptoProfit</text><line style="stroke:#000000;stroke-width:0.5;" x1="8" x2="156.8379" y1="884.13" y2="884.13"/><text fill="#000000" font-family="sans-serif" font-size="14" lengthAdjust="spacing" textLength="87.5547" x="13" y="901.1251">_id: ObjectId</text><text fill="#000000" font-family="sans-serif" font-size="14" lengthAdjust="spacing" textLength="82.5166" x="13" y="917.422">date: String</text><text fill="#000000" font-family="sans-serif" font-size="14" lengthAdjust="spacing" textLength="111.3301" x="13" y="933.7189">userId: ObjectId</text><text fill="#000000" font-family="sans-serif" font-size="14" lengthAdjust="spacing" textLength="119.3691" x="13" y="950.0157">exchange: String</text><text fill="#000000" font-family="sans-serif" font-size="14" lengthAdjust="spacing" textLength="101.5068" x="13" y="966.3126">symbol: String</text><text fill="#000000" font-family="sans-serif" font-size="14" lengthAdjust="spacing" textLength="119.4238" x="13" y="982.6095">amount: Number</text><text fill="#000000" font-family="sans-serif" font-size="14" lengthAdjust="spacing" textLength="138.8379" x="13" y="998.9064">simulation: Boolean</text></g><!--class DailyProfit--><g class="entity" data-qualified-name="DailyProfit" data-source-line="42" id="ent0004"><rect fill="#FFFFE0" height="154.0781" rx="2.5" ry="2.5" style="stroke:#000000;stroke-width:0.5;" width="185.667" x="192.59" y="852.13"/><ellipse cx="244.9259" cy="868.13" fill="#ADD1B2" rx="11" ry="11" style="stroke:#181818;stroke-width:1;"/><path d="M247.8947,873.7706 Q247.3166,874.0675 246.6759,874.2081 Q246.0353,874.3644 245.3322,874.3644 Q242.8322,874.3644 241.5041,872.7238 Q240.1916,871.0675 240.1916,867.9425 Q240.1916,864.8175 241.5041,863.1613 Q242.8322,861.505 245.3322,861.505 Q246.0353,861.505 246.6759,861.6613 Q247.3322,861.8175 247.8947,862.1144 L247.8947,864.8331 Q247.2697,864.255 246.6759,863.9894 Q246.0822,863.7081 245.4572,863.7081 Q244.1134,863.7081 243.4259,864.7863 Q242.7384,865.8488 242.7384,867.9425 Q242.7384,870.0363 243.4259,871.1144 Q244.1134,872.1769 245.4572,872.1769 Q246.0822,872.1769 246.6759,871.9113 Q247.2697,871.63 247.8947,871.0519 L247.8947,873.7706 Z " fill="#000000"/><text fill="#000000" font-family="sans-serif" font-size="14" lengthAdjust="spacing" textLength="72.4951" x="265.4259" y="872.9767">DailyProfit</text><line style="stroke:#000000;stroke-width:0.5;" x1="193.59" x2="377.257" y1="884.13" y2="884.13"/><text fill="#000000" font-family="sans-serif" font-size="14" lengthAdjust="spacing" textLength="87.5547" x="198.59" y="901.1251">_id: ObjectId</text><text fill="#000000" font-family="sans-serif" font-size="14" lengthAdjust="spacing" textLength="82.5166" x="198.59" y="917.422">date: String</text><text fill="#000000" font-family="sans-serif" font-size="14" lengthAdjust="spacing" textLength="111.3301" x="198.59" y="933.7189">userId: ObjectId</text><text fill="#000000" font-family="sans-serif" font-size="14" lengthAdjust="spacing" textLength="119.3691" x="198.59" y="950.0157">exchange: String</text><text fill="#000000" font-family="sans-serif" font-size="14" lengthAdjust="spacing" textLength="101.5068" x="198.59" y="966.3126">symbol: String</text><text fill="#000000" font-family="sans-serif" font-size="14" lengthAdjust="spacing" textLength="102.9219" x="198.59" y="982.6095">profit: Number</text><text fill="#000000" font-family="sans-serif" font-size="14" lengthAdjust="spacing" textLength="173.667" x="198.59" y="998.9064">profitSimulated: Number</text></g><!--class Exchange--><g class="entity" data-qualified-name="Exchange" data-source-line="52" id="ent0005"><rect fill="#FFFFE0" height="170.375" rx="2.5" ry="2.5" style="stroke:#000000;stroke-width:0.5;" width="163.915" x="413.46" y="843.98"/><ellipse cx="456.9278" cy="859.98" fill="#ADD1B2" rx="11" ry="11" style="stroke:#181818;stroke-width:1;"/><path d="M459.8965,865.6206 Q459.3184,865.9175 458.6778,866.0581 Q458.0371,866.2144 457.334,866.2144 Q454.834,866.2144 453.5059,864.5738 Q452.1934,862.9175 452.1934,859.7925 Q452.1934,856.6675 453.5059,855.0113 Q454.834,853.355 457.334,853.355 Q458.0371,853.355 458.6778,853.5113 Q459.334,853.6675 459.8965,853.9644 L459.8965,856.6831 Q459.2715,856.105 458.6778,855.8394 Q458.084,855.5581 457.459,855.5581 Q456.1153,855.5581 455.4278,856.6363 Q454.7403,857.6988 454.7403,859.7925 Q454.7403,861.8863 455.4278,862.9644 Q456.1153,864.0269 457.459,864.0269 Q458.084,864.0269 458.6778,863.7613 Q459.2715,863.48 459.8965,862.9019 L459.8965,865.6206 Z " fill="#000000"/><text fill="#000000" font-family="sans-serif" font-size="14" lengthAdjust="spacing" textLength="68.6533" x="477.2539" y="864.8267">Exchange</text><line style="stroke:#000000;stroke-width:0.5;" x1="414.46" x2="576.375" y1="875.98" y2="875.98"/><text fill="#000000" font-family="sans-serif" font-size="14" lengthAdjust="spacing" textLength="87.5547" x="419.46" y="892.9751">_id: ObjectId</text><text fill="#000000" font-family="sans-serif" font-size="14" lengthAdjust="spacing" textLength="119.6494" x="419.46" y="909.272">createdAt: String</text><text fill="#000000" font-family="sans-serif" font-size="14" lengthAdjust="spacing" textLength="111.3301" x="419.46" y="925.5689">userId: ObjectId</text><text fill="#000000" font-family="sans-serif" font-size="14" lengthAdjust="spacing" textLength="90.6514" x="419.46" y="941.8657">name: String</text><text fill="#000000" font-family="sans-serif" font-size="14" lengthAdjust="spacing" textLength="98.3828" x="419.46" y="958.1626">apiKey: String</text><text fill="#000000" font-family="sans-serif" font-size="14" lengthAdjust="spacing" textLength="117.3594" x="419.46" y="974.4595">apiSecret: String</text><text fill="#000000" font-family="sans-serif" font-size="14" lengthAdjust="spacing" textLength="151.915" x="419.46" y="990.7564">apiPassphrase: String</text><text fill="#000000" font-family="sans-serif" font-size="14" lengthAdjust="spacing" textLength="123.2725" x="419.46" y="1007.0532">favorites: String[]</text></g><!--class ManualTransaction--><g class="entity" data-qualified-name="ManualTransaction" data-source-line="63" id="ent0006"><rect fill="#FFFFE0" height="186.6719" rx="2.5" ry="2.5" style="stroke:#000000;stroke-width:0.5;" width="165.0205" x="611.91" y="835.83"/><ellipse cx="626.91" cy="851.83" fill="#ADD1B2" rx="11" ry="11" style="stroke:#181818;stroke-width:1;"/><path d="M629.8788,857.4706 Q629.3006,857.7675 628.66,857.9081 Q628.0194,858.0644 627.3163,858.0644 Q624.8163,858.0644 623.4881,856.4238 Q622.1756,854.7675 622.1756,851.6425 Q622.1756,848.5175 623.4881,846.8613 Q624.8163,845.205 627.3163,845.205 Q628.0194,845.205 628.66,845.3613 Q629.3163,845.5175 629.8788,845.8144 L629.8788,848.5331 Q629.2538,847.955 628.66,847.6894 Q628.0663,847.4081 627.4413,847.4081 Q626.0975,847.4081 625.41,848.4863 Q624.7225,849.5488 624.7225,851.6425 Q624.7225,853.7363 625.41,854.8144 Q626.0975,855.8769 627.4413,855.8769 Q628.0663,855.8769 628.66,855.6113 Q629.2538,855.33 629.8788,854.7519 L629.8788,857.4706 Z " fill="#000000"/><text fill="#000000" font-family="sans-serif" font-size="14" lengthAdjust="spacing" textLength="133.0205" x="640.91" y="856.6767">ManualTransaction</text><line style="stroke:#000000;stroke-width:0.5;" x1="612.91" x2="775.9305" y1="867.83" y2="867.83"/><text fill="#000000" font-family="sans-serif" font-size="14" lengthAdjust="spacing" textLength="87.5547" x="617.91" y="884.8251">_id: ObjectId</text><text fill="#000000" font-family="sans-serif" font-size="14" lengthAdjust="spacing" textLength="119.6494" x="617.91" y="901.122">createdAt: String</text><text fill="#000000" font-family="sans-serif" font-size="14" lengthAdjust="spacing" textLength="111.3301" x="617.91" y="917.4189">userId: ObjectId</text><text fill="#000000" font-family="sans-serif" font-size="14" lengthAdjust="spacing" textLength="112.499" x="617.91" y="933.7157">currency: String</text><text fill="#000000" font-family="sans-serif" font-size="14" lengthAdjust="spacing" textLength="119.4238" x="617.91" y="950.0126">amount: Number</text><text fill="#000000" font-family="sans-serif" font-size="14" lengthAdjust="spacing" textLength="100.249" x="617.91" y="966.3095">price: Number</text><text fill="#000000" font-family="sans-serif" font-size="14" lengthAdjust="spacing" textLength="87.5615" x="617.91" y="982.6064">fee: Number</text><text fill="#000000" font-family="sans-serif" font-size="14" lengthAdjust="spacing" textLength="125.7607" x="617.91" y="998.9032">received: Number</text><text fill="#000000" font-family="sans-serif" font-size="14" lengthAdjust="spacing" textLength="95.6484" x="617.91" y="1015.2001">paid: Number</text></g><!--class Purchase--><g class="entity" data-qualified-name="Purchase" data-source-line="75" id="ent0007"><rect fill="#FFFFE0" height="300.75" rx="2.5" ry="2.5" style="stroke:#000000;stroke-width:0.5;" width="201.5947" x="905.62" y="7"/><ellipse cx="970.1034" cy="23" fill="#ADD1B2" rx="11" ry="11" style="stroke:#181818;stroke-width:1;"/><path d="M973.0721,28.6406 Q972.494,28.9375 971.8534,29.0781 Q971.2128,29.2344 970.5096,29.2344 Q968.0096,29.2344 966.6815,27.5938 Q965.369,25.9375 965.369,22.8125 Q965.369,19.6875 966.6815,18.0313 Q968.0096,16.375 970.5096,16.375 Q971.2128,16.375 971.8534,16.5313 Q972.5096,16.6875 973.0721,16.9844 L973.0721,19.7031 Q972.4471,19.125 971.8534,18.8594 Q971.2596,18.5781 970.6346,18.5781 Q969.2909,18.5781 968.6034,19.6563 Q967.9159,20.7188 967.9159,22.8125 Q967.9159,24.9063 968.6034,25.9844 Q969.2909,27.0469 970.6346,27.0469 Q971.2596,27.0469 971.8534,26.7813 Q972.4471,26.5 973.0721,25.9219 L973.0721,28.6406 Z " fill="#000000"/><text fill="#000000" font-family="sans-serif" font-size="14" lengthAdjust="spacing" textLength="64.1279" x="990.6034" y="27.8467">Purchase</text><line style="stroke:#000000;stroke-width:0.5;" x1="906.62" x2="1106.2147" y1="39" y2="39"/><text fill="#000000" font-family="sans-serif" font-size="14" lengthAdjust="spacing" textLength="87.5547" x="911.62" y="55.9951">_id: ObjectId</text><text fill="#000000" font-family="sans-serif" font-size="14" lengthAdjust="spacing" textLength="119.6494" x="911.62" y="72.292">createdAt: String</text><text fill="#000000" font-family="sans-serif" font-size="14" lengthAdjust="spacing" textLength="111.3301" x="911.62" y="88.5889">userId: ObjectId</text><text fill="#000000" font-family="sans-serif" font-size="14" lengthAdjust="spacing" textLength="103.7354" x="911.62" y="104.8857">botId: ObjectId</text><text fill="#000000" font-family="sans-serif" font-size="14" lengthAdjust="spacing" textLength="189.5947" x="911.62" y="121.1826">associatedSelling: ObjectId</text><text fill="#000000" font-family="sans-serif" font-size="14" lengthAdjust="spacing" textLength="112.499" x="911.62" y="137.4795">currency: String</text><text fill="#000000" font-family="sans-serif" font-size="14" lengthAdjust="spacing" textLength="119.4238" x="911.62" y="153.7764">amount: Number</text><text fill="#000000" font-family="sans-serif" font-size="14" lengthAdjust="spacing" textLength="100.249" x="911.62" y="170.0732">price: Number</text><text fill="#000000" font-family="sans-serif" font-size="14" lengthAdjust="spacing" textLength="95.6484" x="911.62" y="186.3701">paid: Number</text><text fill="#000000" font-family="sans-serif" font-size="14" lengthAdjust="spacing" textLength="87.5615" x="911.62" y="202.667">fee: Number</text><text fill="#000000" font-family="sans-serif" font-size="14" lengthAdjust="spacing" textLength="150.9854" x="911.62" y="218.9639">profitMargin: Number</text><text fill="#000000" font-family="sans-serif" font-size="14" lengthAdjust="spacing" textLength="142.6182" x="911.62" y="235.2607">targetPrice: Number</text><text fill="#000000" font-family="sans-serif" font-size="14" lengthAdjust="spacing" textLength="124.6123" x="911.62" y="251.5576">isForced: Boolean</text><text fill="#000000" font-family="sans-serif" font-size="14" lengthAdjust="spacing" textLength="156.249" x="911.62" y="267.8545">isEmergency: Boolean</text><text fill="#000000" font-family="sans-serif" font-size="14" lengthAdjust="spacing" textLength="127.7295" x="911.62" y="284.1514">isPaused: Boolean</text><text fill="#000000" font-family="sans-serif" font-size="14" lengthAdjust="spacing" textLength="107.2695" x="911.62" y="300.4482">isSold: Boolean</text></g><!--class Selling--><g class="entity" data-qualified-name="Selling" data-source-line="94" id="ent0008"><rect fill="#FFFFE0" height="284.4531" rx="2.5" ry="2.5" style="stroke:#000000;stroke-width:0.5;" width="218.7939" x="954.02" y="384.75"/><ellipse cx="1035.7026" cy="400.75" fill="#ADD1B2" rx="11" ry="11" style="stroke:#181818;stroke-width:1;"/><path d="M1038.6714,406.3906 Q1038.0932,406.6875 1037.4526,406.8281 Q1036.812,406.9844 1036.1089,406.9844 Q1033.6089,406.9844 1032.2807,405.3438 Q1030.9682,403.6875 1030.9682,400.5625 Q1030.9682,397.4375 1032.2807,395.7813 Q1033.6089,394.125 1036.1089,394.125 Q1036.812,394.125 1037.4526,394.2813 Q1038.1089,394.4375 1038.6714,394.7344 L1038.6714,397.4531 Q1038.0464,396.875 1037.4526,396.6094 Q1036.8589,396.3281 1036.2339,396.3281 Q1034.8901,396.3281 1034.2026,397.4063 Q1033.5151,398.4688 1033.5151,400.5625 Q1033.5151,402.6563 1034.2026,403.7344 Q1034.8901,404.7969 1036.2339,404.7969 Q1036.8589,404.7969 1037.4526,404.5313 Q1038.0464,404.25 1038.6714,403.6719 L1038.6714,406.3906 Z " fill="#000000"/><text fill="#000000" font-family="sans-serif" font-size="14" lengthAdjust="spacing" textLength="46.9287" x="1056.2026" y="405.5967">Selling</text><line style="stroke:#000000;stroke-width:0.5;" x1="955.02" x2="1171.8139" y1="416.75" y2="416.75"/><text fill="#000000" font-family="sans-serif" font-size="14" lengthAdjust="spacing" textLength="87.5547" x="960.02" y="433.7451">_id: ObjectId</text><text fill="#000000" font-family="sans-serif" font-size="14" lengthAdjust="spacing" textLength="119.6494" x="960.02" y="450.042">createdAt: String</text><text fill="#000000" font-family="sans-serif" font-size="14" lengthAdjust="spacing" textLength="111.3301" x="960.02" y="466.3389">userId: ObjectId</text><text fill="#000000" font-family="sans-serif" font-size="14" lengthAdjust="spacing" textLength="103.7354" x="960.02" y="482.6357">botId: ObjectId</text><text fill="#000000" font-family="sans-serif" font-size="14" lengthAdjust="spacing" textLength="206.7939" x="960.02" y="498.9326">associatedPurchase: ObjectId</text><text fill="#000000" font-family="sans-serif" font-size="14" lengthAdjust="spacing" textLength="112.499" x="960.02" y="515.2295">currency: String</text><text fill="#000000" font-family="sans-serif" font-size="14" lengthAdjust="spacing" textLength="119.4238" x="960.02" y="531.5264">amount: Number</text><text fill="#000000" font-family="sans-serif" font-size="14" lengthAdjust="spacing" textLength="100.249" x="960.02" y="547.8232">price: Number</text><text fill="#000000" font-family="sans-serif" font-size="14" lengthAdjust="spacing" textLength="87.5615" x="960.02" y="564.1201">fee: Number</text><text fill="#000000" font-family="sans-serif" font-size="14" lengthAdjust="spacing" textLength="125.8496" x="960.02" y="580.417">buyPrice: Number</text><text fill="#000000" font-family="sans-serif" font-size="14" lengthAdjust="spacing" textLength="150.9854" x="960.02" y="596.7139">profitMargin: Number</text><text fill="#000000" font-family="sans-serif" font-size="14" lengthAdjust="spacing" textLength="102.9219" x="960.02" y="613.0107">profit: Number</text><text fill="#000000" font-family="sans-serif" font-size="14" lengthAdjust="spacing" textLength="124.6123" x="960.02" y="629.3076">isForced: Boolean</text><text fill="#000000" font-family="sans-serif" font-size="14" lengthAdjust="spacing" textLength="156.249" x="960.02" y="645.6045">isEmergency: Boolean</text><text fill="#000000" font-family="sans-serif" font-size="14" lengthAdjust="spacing" textLength="166.5508" x="960.02" y="661.9014">profitAsCrypto: Number</text></g><!--class TotalProfit--><g class="entity" data-qualified-name="TotalProfit" data-source-line="112" id="ent0009"><rect fill="#FFFFE0" height="121.4844" rx="2.5" ry="2.5" style="stroke:#000000;stroke-width:0.5;" width="185.667" x="1291.59" y="868.43"/><ellipse cx="1344.1003" cy="884.43" fill="#ADD1B2" rx="11" ry="11" style="stroke:#181818;stroke-width:1;"/><path d="M1347.069,890.0706 Q1346.4909,890.3675 1345.8503,890.5081 Q1345.2096,890.6644 1344.5065,890.6644 Q1342.0065,890.6644 1340.6784,889.0238 Q1339.3659,887.3675 1339.3659,884.2425 Q1339.3659,881.1175 1340.6784,879.4613 Q1342.0065,877.805 1344.5065,877.805 Q1345.2096,877.805 1345.8503,877.9613 Q1346.5065,878.1175 1347.069,878.4144 L1347.069,881.1331 Q1346.444,880.555 1345.8503,880.2894 Q1345.2565,880.0081 1344.6315,880.0081 Q1343.2878,880.0081 1342.6003,881.0863 Q1341.9128,882.1488 1341.9128,884.2425 Q1341.9128,886.3363 1342.6003,887.4144 Q1343.2878,888.4769 1344.6315,888.4769 Q1345.2565,888.4769 1345.8503,888.2113 Q1346.444,887.93 1347.069,887.3519 L1347.069,890.0706 Z " fill="#000000"/><text fill="#000000" font-family="sans-serif" font-size="14" lengthAdjust="spacing" textLength="72.1465" x="1364.6003" y="889.2767">TotalProfit</text><line style="stroke:#000000;stroke-width:0.5;" x1="1292.59" x2="1476.257" y1="900.43" y2="900.43"/><text fill="#000000" font-family="sans-serif" font-size="14" lengthAdjust="spacing" textLength="87.5547" x="1297.59" y="917.4251">_id: ObjectId</text><text fill="#000000" font-family="sans-serif" font-size="14" lengthAdjust="spacing" textLength="111.3301" x="1297.59" y="933.722">userId: ObjectId</text><text fill="#000000" font-family="sans-serif" font-size="14" lengthAdjust="spacing" textLength="119.3691" x="1297.59" y="950.0189">exchange: String</text><text fill="#000000" font-family="sans-serif" font-size="14" lengthAdjust="spacing" textLength="102.9219" x="1297.59" y="966.3157">profit: Number</text><text fill="#000000" font-family="sans-serif" font-size="14" lengthAdjust="spacing" textLength="173.667" x="1297.59" y="982.6126">profitSimulated: Number</text></g><!--class User--><g class="entity" data-qualified-name="User" data-source-line="120" id="ent0010"><rect fill="#FFFFE0" height="137.7813" rx="2.5" ry="2.5" style="stroke:#000000;stroke-width:0.5;" width="167.415" x="692.71" y="1189.14"/><ellipse cx="756.2124" cy="1205.14" fill="#ADD1B2" rx="11" ry="11" style="stroke:#181818;stroke-width:1;"/><path d="M759.1812,1210.7806 Q758.6031,1211.0775 757.9624,1211.2181 Q757.3218,1211.3744 756.6187,1211.3744 Q754.1187,1211.3744 752.7906,1209.7338 Q751.4781,1208.0775 751.4781,1204.9525 Q751.4781,1201.8275 752.7906,1200.1713 Q754.1187,1198.515 756.6187,1198.515 Q757.3218,1198.515 757.9624,1198.6713 Q758.6187,1198.8275 759.1812,1199.1244 L759.1812,1201.8431 Q758.5562,1201.265 757.9624,1200.9994 Q757.3687,1200.7181 756.7437,1200.7181 Q755.3999,1200.7181 754.7124,1201.7963 Q754.0249,1202.8588 754.0249,1204.9525 Q754.0249,1207.0463 754.7124,1208.1244 Q755.3999,1209.1869 756.7437,1209.1869 Q757.3687,1209.1869 757.9624,1208.9213 Q758.5562,1208.64 759.1812,1208.0619 L759.1812,1210.7806 Z " fill="#000000"/><text fill="#000000" font-family="sans-serif" font-size="14" lengthAdjust="spacing" textLength="31.9102" x="776.7124" y="1209.9867">User</text><line style="stroke:#000000;stroke-width:0.5;" x1="693.71" x2="859.125" y1="1221.14" y2="1221.14"/><text fill="#000000" font-family="sans-serif" font-size="14" lengthAdjust="spacing" textLength="87.5547" x="698.71" y="1238.1351">_id: ObjectId</text><text fill="#000000" font-family="sans-serif" font-size="14" lengthAdjust="spacing" textLength="119.6494" x="698.71" y="1254.432">createdAt: String</text><text fill="#000000" font-family="sans-serif" font-size="14" lengthAdjust="spacing" textLength="121.1875" x="698.71" y="1270.7289">username: String</text><text fill="#000000" font-family="sans-serif" font-size="14" lengthAdjust="spacing" textLength="117.6602" x="698.71" y="1287.0257">password: String</text><text fill="#000000" font-family="sans-serif" font-size="14" lengthAdjust="spacing" textLength="145.8652" x="698.71" y="1303.3226">permissions: String[]</text><text fill="#000000" font-family="sans-serif" font-size="14" lengthAdjust="spacing" textLength="155.415" x="698.71" y="1319.6195">lastConnection: String</text></g><!--link Bot to User--><g class="link" data-entity-1="ent0002" data-entity-2="ent0010" data-link-type="dependency" data-source-line="129" id="lnk11"><path codeLine="129" d="M849.95,1112.24 C836.11,1139.5 825.338,1160.7209 813.768,1183.4909" fill="none" id="Bot-to-User" style="stroke:#000000;stroke-width:1;"/><polygon fill="#000000" points="811.05,1188.84,818.693,1182.6284,813.315,1184.3824,811.5609,1179.0044,811.05,1188.84" style="stroke:#000000;stroke-width:1;"/><text fill="#000000" font-family="sans-serif" font-size="13" lengthAdjust="spacing" textLength="40.4409" x="831.42" y="1155.2069">userId</text></g><!--link CryptoProfit to User--><g class="link" data-entity-1="ent0003" data-entity-2="ent0010" data-link-type="dependency" data-source-line="130" id="lnk12"><path codeLine="130" d="M104.6,1006.44 C119.08,1043.46 141.7,1085.57 175.42,1112.14 C255.34,1175.13 540.6729,1223.4335 686.3429,1244.6935" fill="none" id="CryptoProfit-to-User" style="stroke:#000000;stroke-width:1;"/><polygon fill="#000000" points="692.28,1245.56,683.952,1240.3022,687.3324,1244.8379,682.7967,1248.2183,692.28,1245.56" style="stroke:#000000;stroke-width:1;"/><text fill="#000000" font-family="sans-serif" font-size="13" lengthAdjust="spacing" textLength="40.4409" x="267.42" y="1155.2069">userId</text></g><!--link DailyProfit to User--><g class="link" data-entity-1="ent0004" data-entity-2="ent0010" data-link-type="dependency" data-source-line="131" id="lnk13"><path codeLine="131" d="M317.67,1006.54 C336.19,1042.68 362.56,1083.98 396.42,1112.14 C483.15,1184.25 603.7585,1221.4633 686.5885,1240.2433" fill="none" id="DailyProfit-to-User" style="stroke:#000000;stroke-width:1;"/><polygon fill="#000000" points="692.44,1241.57,684.5472,1235.679,687.5638,1240.4644,682.7783,1243.4809,692.44,1241.57" style="stroke:#000000;stroke-width:1;"/><text fill="#000000" font-family="sans-serif" font-size="13" lengthAdjust="spacing" textLength="40.4409" x="461.42" y="1155.2069">userId</text></g><!--link Exchange to User--><g class="link" data-entity-1="ent0005" data-entity-2="ent0010" data-link-type="dependency" data-source-line="132" id="lnk14"><path codeLine="132" d="M532.54,1014.77 C548.92,1047.07 570.02,1083.08 594.42,1112.14 C622.46,1145.55 654.4285,1172.9654 687.5685,1197.6554" fill="none" id="Exchange-to-User" style="stroke:#000000;stroke-width:1;"/><polygon fill="#000000" points="692.38,1201.24,687.5526,1192.6554,688.3704,1198.2528,682.773,1199.0707,692.38,1201.24" style="stroke:#000000;stroke-width:1;"/><text fill="#000000" font-family="sans-serif" font-size="13" lengthAdjust="spacing" textLength="40.4409" x="640.42" y="1155.2069">userId</text></g><!--link ManualTransaction to User--><g class="link" data-entity-1="ent0006" data-entity-2="ent0010" data-link-type="dependency" data-source-line="133" id="lnk15"><path codeLine="133" d="M717.7,1022.96 C730.93,1075.71 745.7602,1134.8003 757.8202,1182.8803" fill="none" id="ManualTransaction-to-User" style="stroke:#000000;stroke-width:1;"/><polygon fill="#000000" points="759.28,1188.7,760.9702,1178.9972,758.0635,1183.8502,753.2105,1180.9436,759.28,1188.7" style="stroke:#000000;stroke-width:1;"/><text fill="#000000" font-family="sans-serif" font-size="13" lengthAdjust="spacing" textLength="40.4409" x="751.42" y="1155.2069">userId</text></g><!--link Purchase to User--><g class="link" data-entity-1="ent0007" data-entity-2="ent0010" data-link-type="dependency" data-source-line="134" id="lnk16"><path codeLine="134" d="M1107.56,235.11 C1138.13,263.81 1168.35,298.96 1186.42,337.75 C1259.1,493.75 1290.7,968.82 1195.42,1112.14 C1122.55,1221.74 966.0677,1249.1862 866.2077,1255.5862" fill="none" id="Purchase-to-User" style="stroke:#000000;stroke-width:1;"/><polygon fill="#000000" points="860.22,1255.97,869.4574,1259.3862,865.2098,1255.6502,868.9457,1251.4026,860.22,1255.97" style="stroke:#000000;stroke-width:1;"/><text fill="#000000" font-family="sans-serif" font-size="13" lengthAdjust="spacing" textLength="40.4409" x="1253.42" y="712.2669">userId</text></g><!--link Purchase to Bot--><g class="link" data-entity-1="ent0007" data-entity-2="ent0002" data-link-type="dependency" data-source-line="135" id="lnk17"><path codeLine="135" d="M921.6,308.23 C912.09,333.04 904.65,359.06 901.42,384.75 C885.66,510.19 891.5,543.17 901.42,669.2 C903.37,694.05 905.5579,714.1652 909.0579,739.7852" fill="none" id="Purchase-to-Bot" style="stroke:#000000;stroke-width:1;"/><polygon fill="#000000" points="909.87,745.73,912.615,736.2714,909.1932,740.776,904.6886,737.3542,909.87,745.73" style="stroke:#000000;stroke-width:1;"/><text fill="#000000" font-family="sans-serif" font-size="13" lengthAdjust="spacing" textLength="33.3887" x="902.42" y="531.5369">botId</text></g><!--link Purchase to Selling--><g class="link" data-entity-1="ent0007" data-entity-2="ent0008" data-link-type="dependency" data-source-line="136" id="lnk18"><path codeLine="136" d="M921.63,308.16 C919.91,323.81 921.09,339.55 926.42,354.75 C932.97,373.43 939.2595,386.5532 950.3095,403.6232" fill="none" id="Purchase-to-Selling" style="stroke:#000000;stroke-width:1;"/><polygon fill="#000000" points="953.57,408.66,952.0371,398.9312,950.8529,404.4627,945.3214,403.2785,953.57,408.66" style="stroke:#000000;stroke-width:1;"/><text fill="#000000" font-family="sans-serif" font-size="13" lengthAdjust="spacing" textLength="113.1152" x="927.42" y="350.8169">associatedSelling</text></g><!--link Selling to Purchase--><g class="link" data-entity-1="ent0008" data-entity-2="ent0007" data-link-type="dependency" data-source-line="139" id="lnk21"><path codeLine="139" d="M1051.71,384.43 C1049.86,368.64 1047.77,352.83 1045.42,337.75 C1043.9,327.99 1043.2577,323.8606 1041.3977,313.7706" fill="none" id="Selling-to-Purchase" style="stroke:#000000;stroke-width:1;"/><polygon fill="#000000" points="1040.31,307.87,1038.0079,317.446,1041.2164,312.7872,1045.8753,315.9957,1040.31,307.87" style="stroke:#000000;stroke-width:1;"/><text fill="#000000" font-family="sans-serif" font-size="13" lengthAdjust="spacing" textLength="129.0859" x="1048.42" y="350.8169">associatedPurchase</text></g><!--link Selling to User--><g class="link" data-entity-1="ent0008" data-entity-2="ent0010" data-link-type="dependency" data-source-line="137" id="lnk19"><path codeLine="137" d="M1113,669.57 C1147.8,795.8 1174.69,980.44 1090.42,1112.14 C1040.1,1190.78 940.9174,1226.0395 866.1974,1242.6295" fill="none" id="Selling-to-User" style="stroke:#000000;stroke-width:1;"/><polygon fill="#000000" points="860.34,1243.93,869.993,1245.8842,865.2211,1242.8462,868.259,1238.0743,860.34,1243.93" style="stroke:#000000;stroke-width:1;"/><text fill="#000000" font-family="sans-serif" font-size="13" lengthAdjust="spacing" textLength="40.4409" x="1146.42" y="933.7369">userId</text></g><!--link Selling to Bot--><g class="link" data-entity-1="ent0008" data-entity-2="ent0002" data-link-type="dependency" data-source-line="138" id="lnk20"><path codeLine="138" d="M1020.59,669.63 C1013.11,694.37 1006.9774,714.6571 999.2174,740.3071" fill="none" id="Selling-to-Bot" style="stroke:#000000;stroke-width:1;"/><polygon fill="#000000" points="997.48,746.05,1003.9148,738.5939,998.9279,741.2642,996.2575,736.2773,997.48,746.05" style="stroke:#000000;stroke-width:1;"/><text fill="#000000" font-family="sans-serif" font-size="13" lengthAdjust="spacing" textLength="33.3887" x="1010.42" y="712.2669">botId</text></g><!--link TotalProfit to User--><g class="link" data-entity-1="ent0009" data-entity-2="ent0010" data-link-type="dependency" data-source-line="140" id="lnk22"><path codeLine="140" d="M1368.87,990.26 C1352.03,1043.01 1319.82,1117.63 1264.42,1159.14 C1201.66,1206.16 988.5652,1235.0646 866.3752,1248.2846" fill="none" id="TotalProfit-to-User" style="stroke:#000000;stroke-width:1;"/><polygon fill="#000000" points="860.41,1248.93,869.788,1251.9387,865.381,1248.3922,868.9275,1243.9851,860.41,1248.93" style="stroke:#000000;stroke-width:1;"/><text fill="#000000" font-family="sans-serif" font-size="13" lengthAdjust="spacing" textLength="40.4409" x="1280.42" y="1155.2069">userId</text></g><?plantuml-src jLNRZjCm47tFL-G7zWVoWDIMHLIm42db0I64N6UQc7NiQEniDqByEvCwpJfssAKg--Wpdl6Pst4jIaYXQMsVDj3i0KsIc7kXMeQiIRbangI_aZHTCtvVeUvKkT5IO_fHLBNz2bBgus3LM08worhILS9MYFheGx-JnCLRQtkA-KEKMVfv_nEutPPqvWZCGhcoMLfO5AeYh3E0s-2QLWTHUNUCrUsww-cGKMmjWIb2TGkAe1m5Xopzr0t93TuT8YWRmZKpXML8p_inXCaPCPXXlESIZETwG81S6s65LZvEkThtL2OmqMk3gT2o376hBPCvweEmo-W6-zRgqBP3fWpZ8O5s94NSZH-lCwKDiR4iknh1rCHigqfuzEn3z0UuRG0hKBoFyvswwoWwkejjBgd9ptSO7ddDLENVCdsprz83M4F3w6TWHDD9Df1wwjP4wYqJidzrJctOEGSKZjamHc6nRiUer-o3OetFYhNY0_Hpe02APUTOJk-tDJBZEn_OWqPXX_bssBVlJsJlcEfcmtRL5fy6ZlVFjRGDrkC0_Wc10yrawJimiL3al4Egihcgo7jj0uGYQou6tu9ay2G-LwOtOnzcwqRfZc4bbB__142aByAyqyX3BPkszoM94sOGfuKr6ZDzhKAU6_MV1sNVzM61_bBDQ84lAAJpNPb0egVQxPvKVB5-_wOvbqlC5ufxKSC2FMafo97-Tny2R8GnJlyddN3VsaOh1Tp9yEX0L8Ol_-RcZIEJZRaciwyYDlkY7LidwOnDiL35ToPHUC4qCC_SrCuDvrt8OYL8phOujc_nG_luz4osi1k9FqTH_3y0?></g></svg>